<svg width="58.000000" height="25.000000" viewBox="0 0 58 25" fill="none" xmlns="http://www.w3.org/2000/svg" xmlns:xlink="http://www.w3.org/1999/xlink">
	<desc>
			Created with Pixso.
	</desc>
	<defs/>
	<path id="Subtract" d="M6.5271 23.6846L7.89038 19.9116L16.2351 19.9116L17.5984 23.6846L24.1252 23.6846L14.8718 0.963867L9.25366 0.963867L0 23.6846L6.5271 23.6846ZM12.0627 9.19824L9.95581 14.5962L14.1694 14.5962L12.0627 9.19824Z" clip-rule="evenodd" fill="#FFFFFF" fill-opacity="1.000000" fill-rule="evenodd"/>
	<path id="Path" d="M27.32 23.68L27.32 16.77C27.32 16.3 27.45 15.86 27.71 15.46C27.98 15.06 28.33 14.73 28.77 14.47C29.2 14.22 29.67 14.1 30.15 14.1C30.54 14.1 30.96 14.17 31.43 14.33C31.89 14.49 32.29 14.69 32.63 14.95L35.03 10.13C34.63 9.84 34.13 9.6 33.53 9.41C32.92 9.23 32.35 9.14 31.8 9.14C30.97 9.14 30.16 9.35 29.37 9.78C28.59 10.21 27.9 10.8 27.32 11.56L27.32 9.58L21.59 9.58L21.59 23.68L27.32 23.68Z" fill="#FFFFFF" fill-opacity="1.000000" fill-rule="nonzero"/>
	<path id="Path" d="M38.77 24.12C39.68 24.12 40.55 23.99 41.37 23.74C42.19 23.49 42.84 23.19 43.32 22.85L41.44 19C41.27 19.12 41.03 19.23 40.72 19.32C40.41 19.42 40.08 19.47 39.71 19.47C39.11 19.47 38.59 19.34 38.15 19.07C37.71 18.81 37.37 18.47 37.14 18.03C36.91 17.6 36.79 17.13 36.79 16.63C36.79 16.23 36.89 15.8 37.09 15.36C37.28 14.92 37.59 14.55 38.02 14.25C38.45 13.94 39 13.79 39.68 13.79C40.4 13.79 40.98 13.95 41.44 14.26L43.32 10.41C42.86 10.06 42.21 9.76 41.36 9.51C40.52 9.26 39.64 9.14 38.74 9.14C37.6 9.14 36.53 9.35 35.56 9.77C34.58 10.18 33.73 10.75 33.01 11.46C32.29 12.17 31.73 12.97 31.33 13.87C30.93 14.76 30.73 15.69 30.73 16.64C30.73 17.66 30.94 18.62 31.37 19.53C31.8 20.43 32.38 21.23 33.13 21.92C33.87 22.61 34.73 23.14 35.69 23.54C36.66 23.93 37.69 24.12 38.77 24.12Z" fill="#FFFFFF" fill-opacity="1.000000" fill-rule="nonzero"/>
	<path id="Path" d="M47.64 23.68L47.64 15.91C47.64 15.44 47.74 15.02 47.93 14.67C48.12 14.33 48.39 14.05 48.74 13.86C49.09 13.67 49.49 13.57 49.95 13.57C50.65 13.57 51.21 13.79 51.63 14.21C52.06 14.64 52.27 15.21 52.27 15.91L52.27 23.68L58 23.68L58 14.67C58 13.62 57.75 12.68 57.25 11.84C56.76 11.01 56.08 10.35 55.23 9.87C54.38 9.38 53.42 9.14 52.35 9.14C51.5 9.14 50.67 9.29 49.85 9.6C49.03 9.91 48.29 10.34 47.64 10.9L47.64 0L41.91 0L41.91 23.68L47.64 23.68Z" fill="#FFFFFF" fill-opacity="1.000000" fill-rule="nonzero"/>
</svg>
